<svg width="345" height="300" viewBox="0 0 345 300" fill="none" xmlns="http://www.w3.org/2000/svg">
<path d="M307.793 102C307.793 102 304.293 106 302.293 114C300.293 122 309.293 128 306.293 136.5C303.293 145 297.793 149 299.293 157.5C300.793 166 307.293 166.5 302.293 176C297.293 185.5 292.793 189 294.293 198C295.793 207 314.793 218.5 314.793 218.5C314.793 218.5 327.793 204 328.293 194.5C328.793 185 316.793 179 318.793 170.5C320.793 162 325.793 155 325.293 147C324.793 139 315.293 133 315.293 127C315.293 121 319.293 117.5 319.293 110.5C319.293 103.5 310.293 97.5 310.293 93.5C310.483 90.41 311.163 87.38 312.293 84.5C312.293 84.5 302.793 90.5 307.793 102Z" fill="#00B533"/>
<path d="M312.793 215.5L311.793 107.5" stroke="#263238" stroke-linecap="round" stroke-linejoin="round"/>
<path d="M322.883 190.78L313.083 200.57L301.983 190.78" stroke="#263238" stroke-linecap="round" stroke-linejoin="round"/>
<path d="M319.613 147.67L312.433 158.77L306.223 148.65" stroke="#263238" stroke-linecap="round" stroke-linejoin="round"/>
<path d="M307.853 115.01L312.103 120.23L315.693 114.03" stroke="#263238" stroke-linecap="round" stroke-linejoin="round"/>
<path d="M325.293 215.5H300.293V243.5H325.293V215.5Z" fill="#263238"/>
<path d="M203.89 130.37L213.31 242.37C213.41 243.03 214.02 243.49 214.69 243.39C214.72 243.39 214.75 243.38 214.78 243.37C215.36 243.23 215.75 242.68 215.69 242.08L209.28 130.34L203.89 130.37Z" fill="#263238" stroke="#263238" stroke-linecap="round" stroke-linejoin="round"/>
<path d="M267.12 130.37L276.57 242.75C276.68 243.42 277.3 243.87 277.97 243.76C277.99 243.76 278.02 243.75 278.04 243.75C278.62 243.6 279.01 243.05 278.95 242.45L272.52 130.37H267.12Z" fill="#263238" stroke="#263238" stroke-linecap="round" stroke-linejoin="round"/>
<path d="M102.86 130.37L97.8601 241.37C97.8001 241.97 98.1901 242.52 98.7801 242.67C99.4101 242.83 100.05 242.45 100.21 241.81C100.22 241.76 100.23 241.71 100.24 241.67L108.24 130.34L102.86 130.37Z" fill="#263238" stroke="#263238" stroke-linecap="round" stroke-linejoin="round"/>
<path d="M44.5901 130.37L39.5901 241.03C39.5301 241.63 39.9201 242.18 40.5101 242.33C41.1401 242.49 41.7801 242.11 41.9401 241.47C41.9501 241.42 41.9601 241.37 41.9701 241.33L49.9001 130.33L44.5901 130.37Z" fill="#263238" stroke="#263238" stroke-linecap="round" stroke-linejoin="round"/>
<path d="M279.42 124.16H41.0701V133.78H279.42V124.16Z" fill="white" stroke="#263238" stroke-linecap="round" stroke-linejoin="round"/>
<path d="M279.42 124.16H41.0701V127.46H279.42V124.16Z" fill="#263238" stroke="#263238" stroke-linecap="round" stroke-linejoin="round"/>
<path d="M279.42 124.16H195.59V133.78H279.42V124.16Z" fill="#263238" stroke="#263238" stroke-linecap="round" stroke-linejoin="round"/>
<path d="M282.41 120.96H38.0901V124.63H282.41V120.96Z" fill="white" stroke="#263238" stroke-linecap="round" stroke-linejoin="round"/>
<path d="M282.41 120.96H199.09V124.63H282.41V120.96Z" fill="#263238" stroke="#263238" stroke-linecap="round" stroke-linejoin="round"/>
<path d="M173.91 108.18L181.18 120.7H168.65L173.91 108.18Z" fill="#263238" stroke="#263238" stroke-linecap="round" stroke-linejoin="round"/>
<path d="M97.0202 120.63H168.65C169.2 120.63 169.71 120.3 169.93 119.79L189.76 74.5799C190.1 73.8899 189.81 73.0599 189.12 72.7199C188.92 72.6199 188.7 72.5699 188.48 72.5799H116.86C116.31 72.5699 115.8 72.8999 115.58 73.4099L95.7502 118.63C95.4102 119.32 95.7002 120.15 96.3902 120.49C96.5902 120.58 96.8002 120.63 97.0202 120.63Z" fill="#263238" stroke="#263238" stroke-linecap="round" stroke-linejoin="round"/>
<path d="M102.18 118.83H164.18C164.69 118.83 165.16 118.53 165.37 118.06L183.53 77.6301C183.82 76.9701 183.52 76.2101 182.86 75.9201C182.7 75.8501 182.52 75.8101 182.34 75.8101H120.34C119.82 75.8101 119.35 76.1101 119.15 76.5901L101 117.01C100.71 117.66 101 118.42 101.65 118.72C101.81 118.79 102 118.83 102.18 118.83Z" fill="white" stroke="#263238" stroke-linecap="round" stroke-linejoin="round"/>
<path d="M152.17 95.96C158.85 98.61 164.92 102.62 169.98 107.72L171.54 104.26L172.54 102.12C163.09 100.49 159.81 91.91 150.84 79.95C149.61 78.33 148.13 76.91 146.45 75.77H120.34C120.09 75.77 119.84 75.84 119.63 75.98C119.42 76.12 119.25 76.32 119.15 76.55L112.4 91.55C131.17 99.46 134.03 88.74 152.17 95.96Z" fill="#00B533" stroke="#263238" stroke-linecap="round" stroke-linejoin="round"/>
<path d="M150.34 103.78C135.7 102.41 106.88 113.84 106.88 113.84L104.21 118.84H117.9C128.22 114.84 140.56 110.84 148.06 111.11C155.94 111.36 157.6 115.43 157.84 118.84H160.06C161.18 113.31 160.42 104.73 150.34 103.78Z" fill="#00B533" stroke="#263238" stroke-linecap="round" stroke-linejoin="round"/>
<path d="M179.86 85.7801L181.86 81.3301C180.8 79.4501 179.58 77.5101 178.47 75.8101H170.19C172.56 78.4401 176.64 82.8401 179.86 85.7801Z" fill="#00B533" stroke="#263238" stroke-linecap="round" stroke-linejoin="round"/>
<path d="M274.12 116.13H254.16V121.25H274.12V116.13Z" fill="#263238"/>
<path d="M264.65 117.88C265.71 117.88 266.58 117.06 266.65 116.01L269.98 67.39C270.05 66.29 269.22 65.33 268.12 65.26C267.02 65.19 266.06 66.02 265.98 67.12L262.65 115.74C262.58 116.84 263.41 117.8 264.51 117.87L264.65 117.88Z" fill="#263238"/>
<path d="M268.23 69.7699C269.33 69.7699 270.23 68.8799 270.23 67.7699C270.23 67.1299 269.93 66.5299 269.42 66.1599L236.62 43.0799C236.25 42.6699 235.62 42.6299 235.21 42.9899C234.8 43.3599 234.76 43.9899 235.12 44.3999C235.21 44.4999 235.32 44.5899 235.45 44.6399L267.03 69.3599C267.38 69.6299 267.8 69.7699 268.23 69.7699Z" fill="#263238"/>
<path d="M268.23 70.5799C269.926 70.5799 271.3 69.2055 271.3 67.5099C271.3 65.8144 269.926 64.4399 268.23 64.4399C266.535 64.4399 265.16 65.8144 265.16 67.5099C265.16 69.2055 266.535 70.5799 268.23 70.5799Z" fill="#263238"/>
<path d="M235.47 48.0599C237.166 48.0599 238.54 46.6854 238.54 44.9899C238.54 43.2944 237.166 41.9199 235.47 41.9199C233.775 41.9199 232.4 43.2944 232.4 44.9899C232.4 46.6854 233.775 48.0599 235.47 48.0599Z" fill="#263238"/>
<path d="M222.42 49.1997L234 58.4897L237.88 48.4897C238.57 46.7097 238.03 44.6797 236.53 43.4897C235.05 42.2897 232.96 42.1997 231.37 43.2597L222.42 49.1997Z" fill="#263238"/>
<path d="M213.77 120.63H259.53C259.88 120.63 260.2 120.42 260.35 120.1L273.02 91.21C273.21 90.75 273 90.22 272.54 90.03C272.43 89.98 272.32 89.96 272.2 89.96H226.42C226.07 89.96 225.75 90.17 225.61 90.49L212.94 119.38C212.74 119.83 212.94 120.36 213.39 120.55C213.51 120.61 213.64 120.63 213.77 120.63Z" fill="white" stroke="#263238" stroke-linecap="round" stroke-linejoin="round"/>
<path d="M218.06 118.38H257.06C257.37 118.38 257.64 118.2 257.76 117.92L268.57 93.27C268.74 92.88 268.56 92.44 268.17 92.27C268.08 92.23 267.98 92.21 267.88 92.21H228.87C228.57 92.21 228.3 92.39 228.17 92.66L217.36 117.31C217.19 117.7 217.38 118.15 217.77 118.32C217.86 118.36 217.96 118.38 218.06 118.38Z" fill="white" stroke="#263238" stroke-linecap="round" stroke-linejoin="round"/>
<path d="M248.49 104.29C252.91 105.95 256.95 108.5 260.35 111.78L262.02 108.21C255.73 107.21 253.55 101.71 247.57 94.09C247.02 93.4 246.4 92.77 245.71 92.21H228.87C228.57 92.21 228.3 92.39 228.17 92.66L223.98 102.22C234.74 105.76 237.08 99.96 248.49 104.29Z" fill="#00B533" stroke="#263238" stroke-linecap="round" stroke-linejoin="round"/>
<path d="M247.27 109.24C237.52 108.37 218.27 115.65 218.27 115.65L217.27 117.39C217.13 117.78 217.34 118.21 217.73 118.35C217.81 118.38 217.9 118.39 217.98 118.39H226.83C233.43 116 240.97 113.77 245.66 113.92C250.55 114.07 251.85 116.32 252.13 118.39H253.74C254.42 114.86 253.72 109.82 247.27 109.24Z" fill="#00B533" stroke="#263238" stroke-linecap="round" stroke-linejoin="round"/>
<path d="M266.72 97.5897L268.04 94.5897C267.55 93.7897 267.04 92.9797 266.52 92.2197H261.22C262.77 93.8297 264.92 95.9597 266.72 97.5897Z" fill="#00B533" stroke="#263238" stroke-linecap="round" stroke-linejoin="round"/>
<path d="M260.17 118.71H191.42V120.96H260.17V118.71Z" fill="white" stroke="#263238" stroke-linecap="round" stroke-linejoin="round"/>
<path d="M260.17 118.71H226.84V120.96H260.17V118.71Z" fill="white" stroke="#263238" stroke-linecap="round" stroke-linejoin="round"/>
<path d="M197.83 103.09H185.7V121.01H197.83V103.09Z" fill="white" stroke="#263238" stroke-linecap="round" stroke-linejoin="round"/>
<path d="M197.28 118.57H196.02C195.47 118.57 195.02 118.12 195.02 117.57C195.02 117.02 195.47 116.57 196.02 116.57H197.28C198.33 116.56 199.17 115.72 199.18 114.67V110.33C199.18 109.28 198.33 108.43 197.28 108.43H195.66C195.11 108.43 194.66 107.98 194.66 107.43C194.66 106.88 195.11 106.43 195.66 106.43H197.28C199.43 106.44 201.17 108.18 201.18 110.33V114.67C201.17 116.82 199.43 118.56 197.28 118.57Z" fill="white" stroke="#263238" stroke-linecap="round" stroke-linejoin="round"/>
<path d="M115.15 27.25C115.15 27.25 117.89 35.76 117.89 37.41C117.87 38.6 117.78 39.8 117.62 40.98L120.05 44.74C120.36 45.23 120.22 45.88 119.73 46.19C119.72 46.2 119.71 46.2 119.7 46.21L115.97 48.4C115.97 48.4 115.42 57.19 114.87 58.29C114.32 59.39 104.98 59.12 104.98 59.12L101.98 64.89L86.3201 58.84L90.4201 47.58L89.5901 30.58C89.5901 30.58 99.2101 22.03 115.15 27.25Z" fill="white" stroke="#263238" stroke-linecap="round" stroke-linejoin="round"/>
<path d="M104.16 48.3999L106.35 48.9499C106.08 51.0199 106.68 53.1099 108 54.7199" fill="white"/>
<path d="M104.16 48.3999L106.35 48.9499C106.08 51.0199 106.68 53.1099 108 54.7199" stroke="#263238" stroke-linecap="round" stroke-linejoin="round"/>
<path d="M106.69 42.5199L122.16 38.6899" stroke="#263238" stroke-linecap="round" stroke-linejoin="round"/>
<path d="M118.18 38.3799L121.7 38.5299C121.7 38.5299 122.93 42.5299 119.25 42.9799" stroke="#263238" stroke-linecap="round" stroke-linejoin="round"/>
<path d="M97.01 20.9598C97.01 20.9598 91.01 19.0298 87.94 27.2798C84.87 35.5298 90.42 46.2798 90.42 47.6098C90.42 48.9398 95.0901 50.0798 98.6601 50.0798C100.63 50.1598 102.56 49.5798 104.16 48.4298C104.16 48.4298 102.78 42.9398 103.88 41.8398C104.98 40.7398 107.73 43.2098 107.73 43.2098C108.59 43.0698 109.43 42.7998 110.2 42.3898C111.02 41.8398 115.15 39.6398 113.77 37.1698C112.39 34.6998 109.65 32.4998 111.85 30.8498C114.05 29.1998 119.85 28.9198 120.09 23.6998C120.33 18.4798 117.09 17.3898 113.77 17.9298C110.45 18.4698 111.57 13.2598 105.25 14.0898C98.93 14.9198 95.91 18.4498 97.01 20.9598Z" fill="#263238" stroke="#263238" stroke-linecap="round" stroke-linejoin="round"/>
<path d="M161.42 77.6896C164.4 82.3496 167.94 86.6196 171.97 90.3996C171.97 90.3996 168.14 81.8696 162.46 76.8296C161.95 76.3896 161.06 77.1196 161.42 77.6896Z" fill="#263238" stroke="#263238" stroke-linecap="round" stroke-linejoin="round"/>
<path d="M139.34 110.71L159.59 95.46C159.59 95.46 159.59 88.46 160.59 86.96C161.59 85.46 169.84 82.96 169.84 82.96C169.84 82.96 172.09 80.21 173.34 82.96C174.07 84.6 173.88 86.5 172.84 87.96C172.97 89.96 172.97 91.96 172.84 93.96C172.59 95.46 163.84 99.21 163.84 99.21C163.84 99.21 151.84 116.96 145.84 121.96C139.84 126.96 138.59 127.96 136.09 128.96C133.59 129.96 129.09 122.71 129.09 122.71L139.34 110.71Z" fill="white" stroke="#263238" stroke-linecap="round" stroke-linejoin="round"/>
<path d="M102.59 227.73C102.59 227.73 116.84 236.73 119.34 236.73C121.84 236.73 123.09 238.98 121.84 239.23C120.59 239.48 112.84 239.73 107.59 239.98C102.34 240.23 98.8401 239.73 95.8401 239.73C92.8401 239.73 89.3401 239.98 87.8401 239.23C86.3401 238.48 88.8401 229.98 88.8401 228.48C88.8401 226.98 100.84 226.73 102.59 227.73Z" fill="#263238" stroke="#263238" stroke-linecap="round" stroke-linejoin="round"/>
<path d="M120.97 237.09C115.44 238.92 106.47 237.72 101.09 237.23C96.83 236.84 90.19 236.75 87.4 236.73C87.29 238.02 87.4 238.99 87.84 239.23C89.34 239.98 92.84 239.73 95.84 239.73C98.84 239.73 102.34 240.23 107.59 239.98C112.84 239.73 120.59 239.48 121.84 239.23C122.77 239.04 122.31 237.74 120.97 237.09Z" fill="white" stroke="#263238" stroke-linecap="round" stroke-linejoin="round"/>
<path d="M113.84 165.96L102.6 222.31L104.94 228.16C103.26 230.6 100.73 232.31 97.8402 232.96C94.6302 233.59 91.3602 233.92 88.0902 233.96C88.0902 233.96 86.8402 227.71 87.5902 226.96C88.3402 226.21 88.5902 223.21 88.5902 223.21L95.0902 166.46L113.84 165.96Z" fill="#00B533" stroke="#263238" stroke-linecap="round" stroke-linejoin="round"/>
<path d="M148.09 225.82C148.09 225.82 156.84 233.07 160.84 234.32C164.84 235.57 169.09 236.82 169.09 238.07C169.09 239.32 159.59 240.57 152.34 239.82C145.09 239.07 134.09 235.82 131.59 235.82C129.09 235.82 129.59 229.32 129.59 228.32C129.59 227.32 141.84 219.32 148.09 225.82Z" fill="#263238" stroke="#263238" stroke-linecap="round" stroke-linejoin="round"/>
<path d="M169.09 238.07C169.09 237.62 168.53 237.17 167.64 236.72C160.49 237.69 153.23 237.64 146.09 236.57C140.61 235.79 135.17 234.73 129.79 233.4C130.05 234.74 130.57 235.82 131.59 235.82C134.09 235.82 145.09 239.07 152.34 239.82C159.59 240.57 169.09 239.32 169.09 238.07Z" fill="white" stroke="#263238" stroke-linecap="round" stroke-linejoin="round"/>
<path d="M104.59 140.71C112.09 140.13 119.62 140.3 127.09 141.21C139.84 142.71 158.59 144.46 159.09 147.71C159.59 150.96 146.71 218.61 146.71 220.36C146.71 222.11 148.71 223.86 149.21 224.86C149.53 225.57 149.7 226.33 149.71 227.11C149.71 227.11 143.59 233.71 138.84 235.46C134.09 237.21 130.1 235.58 129.1 235.58C128.1 235.58 128.1 228.83 128.85 225.58C129.6 222.33 130.85 214.08 131.1 213.33C131.35 212.58 135.34 164.46 135.34 164.46C135.34 164.46 107.84 170.46 85.5902 167.96C63.3402 165.46 61.0902 161.96 59.8402 156.71C58.5902 151.46 61.0902 140.96 61.0902 140.96L104.59 140.71Z" fill="#00B533" stroke="#263238" stroke-linecap="round" stroke-linejoin="round"/>
<path d="M152.64 159.73C153.48 159.4 154.31 159.06 155.09 158.73L152.64 159.73Z" fill="white"/>
<path d="M152.64 159.73C153.48 159.4 154.31 159.06 155.09 158.73" stroke="#263238" stroke-linecap="round" stroke-linejoin="round"/>
<path d="M135.34 164.46C140.13 163.52 144.86 162.31 149.51 160.83L135.34 164.46Z" fill="white"/>
<path d="M135.34 164.46C140.13 163.52 144.86 162.31 149.51 160.83" stroke="#263238" stroke-linecap="round" stroke-linejoin="round"/>
<path d="M83.5901 57.4598C83.5901 57.4598 64.0901 66.7098 61.3401 68.4598C58.5901 70.2098 56.8401 91.9598 56.8401 95.7098C56.8401 99.4598 59.5901 136.21 60.3401 142.46C61.0901 148.71 85.0901 152.96 93.0901 150.71C101.09 148.46 108.84 142.71 108.84 140.71C108.84 138.71 108.09 121.71 108.59 118.46C109.09 115.21 113.59 101.46 113.59 101.46L122.09 125.71C125.66 124.76 129.16 123.59 132.59 122.21C139.84 119.21 141.59 109.21 141.59 109.21C141.59 109.21 133.59 95.2098 131.34 88.2098C129.09 81.2098 128.09 75.9598 127.09 74.7098C126.09 73.4598 103.59 62.9598 99.5901 60.2098C95.0101 56.7598 89.0501 55.7398 83.5901 57.4598Z" fill="#263238" stroke="#263238" stroke-linecap="round" stroke-linejoin="round"/>
<path d="M78.6101 171.78L88.6101 242.78C88.7001 243.43 89.2901 243.89 89.9501 243.8C89.9901 243.79 90.0301 243.79 90.0701 243.78C90.6501 243.64 91.0401 243.09 90.9801 242.5L83.9801 170.62L78.6101 171.78Z" fill="#263238" stroke="#263238" stroke-linecap="round" stroke-linejoin="round"/>
<path d="M49.9201 172.36L33.2301 242.09C33.0801 242.73 33.4701 243.37 34.1101 243.53C34.1501 243.54 34.1901 243.55 34.2301 243.55C34.8201 243.63 35.3901 243.27 35.5501 242.69L54.9301 175.03L49.9201 172.36Z" fill="#263238" stroke="#263238" stroke-linecap="round" stroke-linejoin="round"/>
<path d="M80.2301 171.5L69.6101 242.4C69.5101 243.06 69.9601 243.67 70.6101 243.77C70.6501 243.78 70.6801 243.78 70.7201 243.78C71.3301 243.81 71.8601 243.38 71.9601 242.78L85.4201 173.73L80.2301 171.5Z" fill="#263238" stroke="#263238" stroke-linecap="round" stroke-linejoin="round"/>
<path d="M108.94 171.78L118.94 242.78C119.03 243.44 119.64 243.89 120.3 243.8C120.33 243.8 120.37 243.79 120.4 243.78C120.98 243.64 121.37 243.1 121.32 242.5L114.32 170.62L108.94 171.78Z" fill="#263238" stroke="#263238" stroke-linecap="round" stroke-linejoin="round"/>
<path d="M34.2501 122.03C34.2501 122.03 31.2501 109.36 31.5901 102.36C31.9301 95.3598 38.2501 86.3598 55.9201 87.3598C73.5901 88.3598 82.9201 105.36 81.5901 119.03C80.2601 132.7 81.5901 159.36 90.9201 165.03C100.25 170.7 121.25 166.7 121.25 166.7C121.25 166.7 124.25 167.36 121.92 169.7C119.59 172.04 100.25 175.36 90.5901 176.7C83.2101 177.7 64.5901 177.18 56.1701 176.87C51.8001 176.76 47.6401 174.93 44.6101 171.78C43.3901 170.47 42.3801 168.98 41.6101 167.36C36.6901 157.08 34.2501 122.03 34.2501 122.03Z" fill="white"/>
<path d="M34.2501 122.03C34.2501 122.03 31.2501 109.36 31.5901 102.36C31.9301 95.3598 38.2501 86.3598 55.9201 87.3598C73.5901 88.3598 82.9201 105.36 81.5901 119.03C80.2601 132.7 81.5901 159.36 90.9201 165.03C100.25 170.7 121.25 166.7 121.25 166.7C121.25 166.7 124.25 167.36 121.92 169.7C119.59 172.04 100.25 175.36 90.5901 176.7C83.2101 177.7 64.5901 177.18 56.1701 176.87C51.8001 176.76 47.6401 174.93 44.6101 171.78C43.3901 170.47 42.3801 168.98 41.6101 167.36C36.6901 157.08 34.2501 122.03 34.2501 122.03Z" stroke="#263238" stroke-linecap="round" stroke-linejoin="round"/>
<path d="M344.57 240.35H0V245.81H344.57V240.35Z" fill="#263238"/>
<g opacity="0.08">
<path opacity="0.08" d="M11.0167 186.912C11.0167 186.912 21.755 244.781 76.2192 276.14C130.674 307.499 198.37 300.018 253.396 295.399C308.422 290.779 345.55 253.568 344.749 206.005C343.949 158.442 300.251 151.108 269.582 101.493C238.913 51.8875 238.269 34.1376 185.516 8.79639C132.763 -16.5356 61.0826 14.8971 30.4229 76.7686C-0.236825 138.64 11.0167 186.912 11.0167 186.912Z" fill="#00B533"/>
<path opacity="0.7" d="M11.0167 186.912C11.0167 186.912 21.755 244.781 76.2192 276.14C130.674 307.499 198.37 300.018 253.396 295.399C308.422 290.779 345.55 253.568 344.749 206.005C343.949 158.442 300.251 151.108 269.582 101.493C238.913 51.8875 238.269 34.1376 185.516 8.79639C132.763 -16.5356 61.0826 14.8971 30.4229 76.7686C-0.236825 138.64 11.0167 186.912 11.0167 186.912Z" fill="#00B533"/>
</g>
</svg>
