<svg width="22" height="22" viewBox="0 0 22 22" fill="none" xmlns="http://www.w3.org/2000/svg">
<path d="M20.1668 15.5851C20.1664 16.8387 19.7379 18.0545 18.9523 19.0314C18.1666 20.0083 17.0709 20.6875 15.8466 20.9568L15.2617 19.2023C15.7973 19.114 16.3066 18.9081 16.753 18.5994C17.1993 18.2906 17.5717 17.8866 17.8431 17.4166H15.5835C15.0973 17.4166 14.631 17.2234 14.2871 16.8796C13.9433 16.5358 13.7502 16.0695 13.7502 15.5833V11.9166C13.7502 11.4304 13.9433 10.964 14.2871 10.6202C14.631 10.2764 15.0973 10.0833 15.5835 10.0833H18.2767C18.053 8.31124 17.1903 6.68175 15.8506 5.50054C14.5109 4.31932 12.7862 3.66757 11.0002 3.66757C9.21409 3.66757 7.48939 4.31932 6.14969 5.50054C4.80999 6.68175 3.94736 8.31124 3.72366 10.0833H6.41683C6.90306 10.0833 7.36937 10.2764 7.71319 10.6202C8.05701 10.964 8.25016 11.4304 8.25016 11.9166V15.5833C8.25016 16.0695 8.05701 16.5358 7.71319 16.8796C7.36937 17.2234 6.90306 17.4166 6.41683 17.4166H3.66683C3.1806 17.4166 2.71428 17.2234 2.37047 16.8796C2.02665 16.5358 1.8335 16.0695 1.8335 15.5833V10.9999C1.8335 5.93717 5.93741 1.83325 11.0002 1.83325C16.0629 1.83325 20.1668 5.93717 20.1668 10.9999V15.5851Z" fill="black"/>
</svg>
