<svg width="12" height="12" viewBox="0 0 12 12" fill="none" xmlns="http://www.w3.org/2000/svg">
<path d="M5.99935 11.8327C2.7776 11.8327 0.166016 9.2211 0.166016 5.99935C0.166016 2.7776 2.7776 0.166016 5.99935 0.166016C9.2211 0.166016 11.8327 2.7776 11.8327 5.99935C11.8327 9.2211 9.2211 11.8327 5.99935 11.8327ZM5.99935 10.666C7.23703 10.666 8.42401 10.1744 9.29918 9.29918C10.1744 8.42401 10.666 7.23703 10.666 5.99935C10.666 4.76167 10.1744 3.57469 9.29918 2.69952C8.42401 1.82435 7.23703 1.33268 5.99935 1.33268C4.76167 1.33268 3.57469 1.82435 2.69952 2.69952C1.82435 3.57469 1.33268 4.76167 1.33268 5.99935C1.33268 7.23703 1.82435 8.42401 2.69952 9.29918C3.57469 10.1744 4.76167 10.666 5.99935 10.666ZM5.41602 3.08268H6.58268V4.24935H5.41602V3.08268ZM5.41602 5.41602H6.58268V8.91602H5.41602V5.41602Z" fill="#00B533"/>
</svg>
