<svg width="329" height="293" viewBox="0 0 329 293" fill="none" xmlns="http://www.w3.org/2000/svg">
<g opacity="0.08">
<path opacity="0.08" d="M1.97074 182.533C1.97074 182.533 12.4642 239.047 65.6865 269.671C118.9 300.296 185.052 292.99 238.823 288.479C292.594 283.968 328.876 247.628 328.094 201.179C327.311 154.731 284.609 147.569 254.64 99.1158C224.67 50.672 224.041 33.3379 172.491 8.59034C120.941 -16.1483 50.895 14.5481 20.9344 74.9703C-9.02621 135.393 1.97074 182.533 1.97074 182.533Z" fill="#00B533"/>
<path opacity="0.7" d="M1.97074 182.533C1.97074 182.533 12.4642 239.047 65.6865 269.671C118.9 300.296 185.052 292.99 238.823 288.479C292.594 283.968 328.876 247.628 328.094 201.179C327.311 154.731 284.609 147.569 254.64 99.1158C224.67 50.672 224.041 33.3379 172.491 8.59034C120.941 -16.1483 50.895 14.5481 20.9344 74.9703C-9.02621 135.393 1.97074 182.533 1.97074 182.533Z" fill="#00B533"/>
</g>
</svg>
