<svg width="168" height="386" viewBox="0 0 168 386" fill="none" xmlns="http://www.w3.org/2000/svg">
<g clip-path="url(#clip0)">
<path d="M107.721 31.9663L102.058 30.9555L90.2291 26.5332L89.8516 40.5581L107.973 42.2006L107.721 31.9663Z" fill="white" stroke="#263238" stroke-linecap="round" stroke-linejoin="round"/>
<path d="M132.89 49.908C132.89 49.908 139.937 51.2979 150.759 47.002" stroke="#263238" stroke-linecap="round" stroke-linejoin="round"/>
<path d="M51.7212 316.381V308.547C51.7212 268.368 102.31 266.725 102.31 238.043C102.31 225.661 92.2425 217.575 77.2673 217.575C60.9077 217.575 50.5886 226.546 50.5886 239.181V242.339C50.5886 245.498 48.8268 247.014 45.6807 247.014L14.8493 245.877C11.9549 245.877 9.94141 244.487 9.94141 242.466V239.307C9.94141 204.308 37.501 180.428 78.1481 180.428C117.789 180.428 143.461 202.918 143.461 236.78C143.461 284.667 91.9908 285.046 91.9908 311.327V316.507C91.9908 319.666 90.229 321.435 87.083 321.435H56.629C53.483 321.308 51.7212 319.539 51.7212 316.381ZM49.0785 363.004C49.0785 350.242 60.2785 339.882 73.8695 339.882C86.8313 339.882 98.283 350.242 98.283 363.004C98.283 375.765 86.7055 386.126 73.492 386.126C60.0268 386 49.0785 375.639 49.0785 363.004Z" fill="#00B533"/>
<path d="M18.4986 194.957L15.8559 200.769C15.8559 200.769 0.628906 202.412 0.628906 203.549C0.628906 204.686 0.754749 212.646 1.63565 212.899C2.26486 213.151 3.01992 213.151 3.64913 212.899L26.175 207.087L28.3143 196.852L18.4986 194.957Z" fill="white" stroke="#263238" stroke-linecap="round" stroke-linejoin="round"/>
<path d="M14.2201 205.191C11.4516 207.465 8.43133 209.487 5.28526 211.256C1.63582 212.898 1.50998 215.425 2.64256 215.425C3.77515 215.425 14.0942 211.129 14.0942 211.129C14.0942 211.129 23.4066 208.729 24.7909 207.971C26.1751 207.213 26.301 203.043 26.301 203.043" fill="white"/>
<path d="M14.2201 205.191C11.4516 207.465 8.43133 209.487 5.28526 211.256C1.63582 212.898 1.50998 215.425 2.64256 215.425C3.77515 215.425 14.0942 211.129 14.0942 211.129C14.0942 211.129 23.4066 208.729 24.7909 207.971C26.1751 207.213 26.301 203.043 26.301 203.043" stroke="#263238" stroke-linecap="round" stroke-linejoin="round"/>
<path d="M31.9636 84.2754L22.5254 156.421L16.1074 195.59L30.5793 199.001L41.4018 152.757L46.4355 123.697L31.9636 84.2754Z" fill="#00B533" stroke="#263238" stroke-linecap="round" stroke-linejoin="round"/>
<path d="M40.7729 288.078C36.4943 293.132 32.4673 298.312 28.8179 303.745C23.91 311.2 25.6718 319.16 31.7122 321.182C37.7527 323.203 45.3032 317.77 47.3167 313.474C49.3302 309.178 48.701 306.904 51.8471 302.608C54.9931 298.312 57.51 294.016 56.3774 288.331C55.2448 282.645 43.919 284.161 40.7729 288.078Z" fill="white" stroke="#263238" stroke-linecap="round" stroke-linejoin="round"/>
<path d="M46.8132 314.611C46.4356 313.727 45.9323 312.842 45.4289 311.831C40.8986 303.745 32.8446 304.377 27.8109 305.893C24.539 312.716 26.4267 319.412 31.8379 321.181C37.2491 322.95 44.1705 318.654 46.8132 314.611Z" fill="white" stroke="#263238" stroke-linecap="round" stroke-linejoin="round"/>
<path d="M45.3029 311.832C43.5411 314.359 41.2759 321.308 32.4669 318.402C29.9501 317.77 27.8108 316.38 26.1748 314.485C26.5523 317.644 28.6917 320.297 31.7119 321.308C37.6265 323.33 45.3029 317.897 47.3164 313.601C49.3299 309.305 48.7006 307.031 51.8467 302.735C54.9928 298.439 57.5096 294.143 56.377 288.457C56.377 295.28 53.8602 296.417 50.7141 300.208C47.5681 303.998 47.0647 309.305 45.3029 311.832Z" fill="white" stroke="#263238" stroke-linecap="round" stroke-linejoin="round"/>
<path d="M124.71 288.078C128.988 293.132 133.015 298.312 136.665 303.745C141.573 311.2 139.811 319.16 133.77 321.182C127.73 323.203 120.179 317.77 118.166 313.474C116.152 309.178 116.782 306.904 113.636 302.608C110.49 298.312 107.973 294.016 109.105 288.331C110.238 282.645 121.564 284.161 124.71 288.078Z" fill="white" stroke="#263238" stroke-linecap="round" stroke-linejoin="round"/>
<path d="M118.795 314.611C119.172 313.727 119.676 312.842 120.179 311.831C124.71 303.745 132.763 304.377 137.797 305.893C141.069 312.716 139.181 319.412 133.77 321.181C128.359 322.95 121.312 318.654 118.795 314.611Z" fill="white" stroke="#263238" stroke-linecap="round" stroke-linejoin="round"/>
<path d="M120.179 311.832C121.941 314.359 124.206 321.308 133.015 318.402C135.532 317.77 137.672 316.38 139.307 314.485C138.93 317.644 136.791 320.297 133.77 321.308C127.856 323.33 120.179 317.897 118.166 313.601C116.152 309.305 116.782 307.031 113.636 302.735C110.49 298.439 107.973 294.143 109.105 288.457C109.105 295.28 111.622 296.417 114.768 300.208C117.914 303.998 118.418 309.305 120.179 311.832Z" fill="white" stroke="#263238" stroke-linecap="round" stroke-linejoin="round"/>
<path d="M138.049 189.651C138.049 184.47 129.24 178.784 129.24 178.784C116.027 165.265 91.9909 167.034 83.1819 168.171C74.3729 166.908 50.3369 165.139 37.1234 178.784C37.1234 178.784 28.3145 184.47 28.3145 189.651C28.3145 194.831 39.3886 287.572 39.3886 287.572C39.3886 287.572 39.1369 292.373 47.065 293.005C54.9931 293.637 58.3909 288.962 58.3909 288.962L61.5369 210.498C61.5369 210.498 74.3729 201.401 76.6381 201.022C77.519 200.896 78.5257 200.769 79.7841 200.517V200.643C82.0493 200.138 84.3145 200.138 86.5796 200.643V200.517C87.8381 200.643 88.8448 200.896 89.7257 201.022C91.9909 201.275 104.827 210.498 104.827 210.498L107.973 288.962C107.973 288.962 111.371 293.51 119.299 293.005C127.227 292.5 126.975 287.572 126.975 287.572C126.975 287.572 138.049 194.705 138.049 189.651Z" fill="#263238" stroke="#263238" stroke-linecap="round" stroke-linejoin="round"/>
<path d="M79.1545 62.5428C79.1545 62.5428 70.8489 61.4056 68.0804 64.1853C65.3118 66.965 55.4961 77.5785 55.4961 77.5785L60.6556 168.424C60.6556 168.424 72.359 172.973 82.3006 172.973C92.2422 172.973 103.694 169.309 106.211 167.287C108.728 165.266 106.462 67.9758 106.462 67.9758C106.462 67.9758 85.4467 61.6583 79.1545 62.5428Z" fill="#00B533" stroke="#263238" stroke-linecap="round" stroke-linejoin="round"/>
<path d="M94.2561 64.5642C98.5347 63.9324 102.939 63.5534 107.344 63.427C113.007 63.427 118.67 63.6797 118.67 63.6797L132.89 50.0339L104.323 43.4637L106.589 30.3233C106.589 30.3233 127.604 28.9334 138.175 30.955C148.746 32.9766 165.231 38.0306 165.986 38.0306C166.741 38.0306 168 41.1894 167.119 43.4637C166.238 45.738 139.559 75.4303 131.506 83.1377C126.22 88.318 121.312 93.7511 116.656 99.4369L113.132 162.991C113.132 162.991 122.571 168.171 124.207 169.814C125.843 171.456 127.856 178.406 127.856 178.406C127.856 178.406 110.49 171.33 105.959 170.698C101.429 170.067 98.5347 169.814 97.7796 168.171C97.0246 166.529 89.8516 90.2133 89.8516 90.2133L90.1032 65.954C90.1032 65.954 89.9774 64.5642 94.2561 64.5642Z" fill="#00B533" stroke="#263238" stroke-linecap="round" stroke-linejoin="round"/>
<path d="M111.37 103.605L96.0176 105.627L97.4018 111.313L105.078 113.334L112.503 109.923L111.37 103.605Z" stroke="#263238" stroke-linecap="round" stroke-linejoin="round"/>
<path d="M69.4648 62.2891L70.8491 83.1369C73.4918 86.5483 77.6446 88.5699 81.9233 88.5699C88.9705 88.3172 89.8514 83.1369 89.8514 83.1369V65.9532L69.4648 62.2891Z" fill="white" stroke="#263238" stroke-linecap="round" stroke-linejoin="round"/>
<path d="M90.2288 73.1554L89.5996 90.339L95.6401 80.8627C95.6401 80.8627 102.184 89.0755 103.82 88.8228C105.456 88.5701 102.687 85.1586 102.058 81.9999C101.429 78.8411 96.6468 67.7223 96.0176 64.5635C95.3884 61.4048 89.9771 60.8994 89.7255 62.2892C89.5996 63.5527 89.5996 64.8162 89.7255 65.9534L90.2288 73.1554Z" fill="white" stroke="#263238" stroke-linecap="round" stroke-linejoin="round"/>
<path d="M70.5973 88.5708C70.5973 88.5708 71.7299 168.55 68.8355 169.435C65.9411 170.319 54.6153 170.572 47.4422 173.984C40.2692 177.395 36.8714 178.785 36.8714 178.785C36.8714 178.785 40.2692 170.446 44.2962 166.782C46.9389 164.381 49.9591 162.359 53.1052 160.717L45.8063 122.559C45.8063 122.559 32.0894 86.2964 31.8377 84.2748C31.5861 82.2532 57.7613 67.4703 63.1726 64.8169C68.5838 62.1636 69.9681 64.5642 69.9681 64.5642L70.5973 88.5708Z" fill="#00B533" stroke="#263238" stroke-linecap="round" stroke-linejoin="round"/>
<path d="M63.5503 60.774C63.5503 60.774 56.7548 82.5063 56.1256 85.286C55.4964 88.0657 56.1256 88.192 58.1391 86.1704C60.1526 84.1488 65.3121 79.3475 65.3121 79.3475L70.7234 88.4447L70.4717 71.6402V61.9112C70.3459 61.9112 70.0942 57.9943 63.5503 60.774Z" fill="white" stroke="#263238" stroke-linecap="round" stroke-linejoin="round"/>
<path d="M50.2105 107.648H66.9476L66.6959 114.471L59.2712 117.125L49.833 114.471L50.2105 107.648Z" stroke="#263238" stroke-linecap="round" stroke-linejoin="round"/>
<path d="M96.2688 32.5974C96.2688 32.5974 100.296 50.0337 101.051 52.8134C101.806 55.5931 96.5205 66.8383 94.7587 69.3653C93.3745 71.6396 91.1093 73.1558 88.4666 73.4085C86.4531 73.4085 75.6306 69.7443 73.1138 67.9754C70.5969 66.2065 67.9542 64.3113 67.9542 64.3113C65.4374 65.4484 62.543 64.943 60.5295 63.1741C57.1318 60.0154 52.6014 56.3512 53.734 53.6979C54.8666 51.1708 57.5093 49.5283 60.2778 49.6546C63.4239 49.6546 62.2913 49.4019 62.2913 49.4019C62.2913 49.4019 56.6284 41.0628 56.6284 34.4926C56.6284 27.9224 68.8351 23.1211 76.0082 23.1211C80.916 23.3738 85.6981 24.5109 90.2284 26.5326L96.2688 32.5974Z" fill="white" stroke="#263238" stroke-linecap="round" stroke-linejoin="round"/>
<path d="M86.3277 39.168L91.4872 48.7706L86.3277 52.3084L84.0625 49.4023" stroke="#263238" stroke-linecap="round" stroke-linejoin="round"/>
<path d="M95.6402 48.0117C95.6402 48.0117 95.8919 50.286 92.4941 54.0765" stroke="#263238" stroke-linecap="round" stroke-linejoin="round"/>
<path d="M80.9163 42.7053C80.9163 44.0952 80.2871 45.106 79.6578 45.106C79.0286 45.106 78.3994 43.9688 78.3994 42.7053C78.3994 41.4418 79.0286 40.3047 79.6578 40.3047C80.2871 40.3047 80.9163 41.3155 80.9163 42.7053Z" fill="#263238"/>
<path d="M89.8512 35.6309C90.6063 35.6309 91.1096 36.768 91.1096 38.0315C91.1096 39.295 90.4804 40.4322 89.8512 40.4322C89.222 40.4322 88.5928 39.295 88.5928 38.0315C88.5928 36.768 89.0961 35.6309 89.8512 35.6309Z" fill="#263238"/>
<path d="M65.5642 17.6881C65.5642 17.6881 47.6945 24.2583 47.0653 32.5974C46.4361 40.9366 63.0473 52.3081 63.8024 53.6979C64.5574 55.0878 67.2001 51.929 67.2001 51.929C66.0675 50.4128 65.69 48.3912 66.0675 46.496C66.9484 43.5899 70.5979 40.1785 70.5979 38.7886C70.5979 37.3988 66.3192 39.9258 66.3192 35.6298C66.3192 31.3339 76.89 28.8069 83.0563 29.0596C89.3484 29.3123 94.7597 39.9258 99.29 34.7454C103.82 29.565 97.2765 28.1752 97.2765 28.1752C97.2765 28.1752 106.085 27.038 106.085 22.4894C106.085 17.9408 101.555 14.7821 99.5417 14.7821C97.5282 14.7821 92.117 18.1935 92.117 14.5294C92.117 10.8652 97.5282 9.0963 92.3686 3.15784C87.2091 -2.78062 80.6653 3.15784 80.6653 5.43214C80.6653 7.70645 79.1552 12.0024 78.0226 12.0024C76.89 12.0024 73.4922 6.82199 69.4653 9.72805C67.0743 11.7497 65.69 14.6557 65.5642 17.6881Z" fill="#263238" stroke="#263238" stroke-linecap="round" stroke-linejoin="round"/>
<path d="M72.9883 39.6732L82.049 36.2617" stroke="#263238" stroke-linecap="round" stroke-linejoin="round"/>
</g>
<defs>
<clipPath id="clip0">
<rect width="168" height="386" fill="white"/>
</clipPath>
</defs>
</svg>
