<svg width="36" height="36" viewBox="0 0 36 36" fill="none" xmlns="http://www.w3.org/2000/svg">
<path d="M9.57301 8.952C11.9636 7.0366 14.9367 5.99512 18 6C21.1875 6 24.117 7.104 26.427 8.952L28.6065 6.7725L30.7275 8.8935L28.548 11.073C30.1346 13.0592 31.1281 15.453 31.4142 17.979C31.7004 20.5049 31.2675 23.0603 30.1654 25.3511C29.0634 27.6419 27.3369 29.575 25.1847 30.9279C23.0325 32.2808 20.5421 32.9985 18 32.9985C15.4579 32.9985 12.9675 32.2808 10.8153 30.9279C8.66311 29.575 6.93665 27.6419 5.83459 25.3511C4.73253 23.0603 4.29966 20.5049 4.5858 17.979C4.87194 15.453 5.86545 13.0592 7.45201 11.073L5.27251 8.895L7.39351 6.774L9.57301 8.9535V8.952ZM19.5 18V11.2425L12 21H16.5V27.75L24 18H19.5ZM12 1.5H24V4.5H12V1.5Z" fill="#00B533"/>
</svg>
