<svg width="104" height="104" viewBox="0 0 104 104" fill="none" xmlns="http://www.w3.org/2000/svg">
<path d="M70.7582 52.1532L43.2391 33.8057V70.5007L70.7582 52.1532ZM83.5924 53.9436L37.9755 84.3549C37.6514 84.5705 37.2749 84.6942 36.8861 84.7128C36.4973 84.7314 36.1107 84.6442 35.7676 84.4605C35.4244 84.2768 35.1375 84.0034 34.9374 83.6695C34.7373 83.3356 34.6315 82.9537 34.6313 82.5645V21.7419C34.6315 21.3526 34.7373 20.9707 34.9374 20.6368C35.1375 20.303 35.4244 20.0296 35.7676 19.8459C36.1107 19.6621 36.4973 19.5749 36.8861 19.5935C37.2749 19.6121 37.6514 19.7358 37.9755 19.9515L83.5924 50.3628C83.8871 50.5593 84.1288 50.8255 84.2959 51.1379C84.463 51.4502 84.5505 51.7989 84.5505 52.1532C84.5505 52.5074 84.463 52.8562 84.2959 53.1685C84.1288 53.4808 83.8871 53.7471 83.5924 53.9436Z" fill="white"/>
</svg>
